# xmcd CD database file
# Copyright (C) 1993-1996 Ti Kan
#
# Track frame offsets:
# 150
# 20417
# 31915
# 49775
# 72495
# 83907
# 103222
# 117847
# 135747
# 151050
# 162095
#
# Disc length: 2352 seconds
#
# Revision: 0
# Processed by: cddbd v1.4b41PL1 Copyright (c) Steve Scherf et al.
# Submitted via: inCDius 1.1b5
#
DISCID=89092e0b
DTITLE=Merle Haggard - Out Among The Stars
DYEAR=1900
DGENRE=
TTITLE0=Out Among The Stars
TTITLE1=My Life's Been Grand
TTITLE2=Love Keeps Hanging On
TTITLE3=Why Can't I Cry
TTITLE4=Love Don't Hurt Everytime
TTITLE5=Pennies From Heaven
TTITLE6=Tell Me Something Bad About Tulsa
TTITLE7=The Show's Almost Over
TTITLE8=Bleachers
TTITLE9=Susie
TTITLE10=Almost Persuaded
EXTD=
EXTT0=
EXTT1=
EXTT2=
EXTT3=
EXTT4=
EXTT5=
EXTT6=
EXTT7=
EXTT8=
EXTT9=
EXTT10=
PLAYORDER=
